<?xml version='1.0' encoding='utf-8'?>
<svg xmlns="http://www.w3.org/2000/svg" version="1.1" id="Layer_1" x="0px" y="0px" viewBox="0 0 612 792" style="enable-background:new 0 0 612 792;"> <style type="text/css"> .st0{fill:#8C714A;} .st1{fill:#A38A5F;} .st2{fill:#C1A988;} .st3{fill:#826C3E;} .st4{fill:#0D0807;} .st5{fill:#EAD3AE;} .st6{fill:#E8D8BA;} .st7{fill:none;} .st8{fill:#BFD791;} .st9{fill:#4E6930;} .st10{fill:#68873A;} .st11{fill:#DCE7C5;} .st12{fill:#FFFFFF;} .st13{fill:#EFF2E4;} .st14{fill:#E4F2F2;} </style> <path class="st0" d="M313.09,717.94c-7.95,1.43-16.55-1.68-21.76-7.85c-0.78,4.76-7.51,6.34-11.65,3.88 c-4.15-2.47-6.23-7.24-8.04-11.7c-1.14,2.22-15.77,5.63-16.9,7.85c-19.66-7.11-36.5-21.74-46.28-40.22 c-1.79-3.38-3.43-6.98-6.34-9.46c-2.91-2.47-7.57-3.42-10.49-0.96c-1.22,1.03-2.05,2.55-3.48,3.26c-3.77,1.85-7.25-3.18-7.92-7.33 c-0.67-4.15-1.44-9.46-5.52-10.45c-6.63-1.62-9.63,10.56-16.45,10.4c-5.38-0.12-6.99-7.32-6.96-12.7 c0.03-5.39-1.56-12.58-6.95-12.72c-3.18-0.08-5.62,2.6-8.24,4.4c-2.62,1.79-10.67-0.1-10.79-3.28c-0.22-5.91-0.45-11.81-0.67-17.72 c-4.21,5.19-13.45,2.08-16.36-3.94c-2.9-6.02-1.48-13.14-0.01-19.66c-4.99,3.01-11.82-1.02-13.88-6.47 c-2.06-5.45-0.78-11.53,0.5-17.21c-1.43-0.15-2.88-0.31-4.32-0.46c4.1-24.05,0.65-49.32-9.73-71.39 c-7.25-15.42-7.48-33.95-7.27-52.36c0.14-11.63,0.44-23.2-0.73-33.91c8.34-7.72,8.86-22.36,1.1-30.64 c2.57-7.56-1.27-16.74-8.47-20.19c1.04-2.04,2.07-4.08,3.11-6.12c1.07-2.11,2.15-4.23,3.22-6.34c-2.33-1.84-4.65-3.68-6.98-5.52 c12.35-5.82,15.99-22.13,13.46-35.55c-1.25-6.61-3.57-12.93-5.97-19.23c-2.47-6.48-5.02-12.95-6.56-19.71 c-2.71-11.95-2.13-24.35-1.54-36.59c1.41-29.35,2.83-58.71,4.24-88.07c0.7-14.61,1.54-29.72,8.17-42.77 c6.63-13.04,20.75-23.47,35.18-21.04c10.69,1.8,19.04,9.93,26.64,17.65c27.71,28.12,60.34,52.87,82.64,85.43 c2.38,3.47,4.95,7.05,7.78,10.33c5.77,6.67,12.63,12.07,21.18,12.61c7.32,0.47,14.26-2.84,21.19-5.23 c14.44-4.99,31.62-2.96,46.44-1.02c5.93,0.78,11.91,1.68,17.75,2.99c7.33,1.64,14.13,1.36,21.93,2.61 c11.32,1.81,17.25-4.35,22.15-10.04c8.19-9.51,18.15-16.85,27.61-25.1c14.97-13.05,25.75-30.06,39.32-44.39 c7.5-7.92,39.32-38.88,49.15-44.23c10.67-5.82,25.21-6.49,34,1.91c7.52,7.19,8.79,18.56,9.48,28.94 c3.96,59.53,3.72,119.34-0.7,178.84c-0.12,1.59-0.24,3.17-0.36,4.76c0.93,11.4-1.88,23.07-7.9,32.8c2.76-2.05,5.53-4.1,8.29-6.14 c-0.59,9.2-1.17,18.4-1.76,27.6c0.82-0.73,1.63-1.46,2.45-2.19c-0.96,4.8-1.82,9.63-2.59,14.46c-4.62,29.3-5.64,59.17-2.99,88.72 c-2,4.14-4.53,8.01-7.52,11.51c-1.41,1.65-2.93,3.22-4.53,4.69c9.89,10.25,7.81,26.71,5.06,40.69c-1.91,9.69-3.82,19.37-5.73,29.06 c-1.64,3.42-3.27,6.83-4.91,10.25c-13.13,16.08-19.53,37.5-17.37,58.15c-2.6,8.49-10.96,14.89-19.85,15.16 c-14.52,15.49-34.58,27.97-42.63,47.61c-5.76,14.06-21.02,21.87-35.84,25.18c-14.82,3.32-30.34,3.4-44.82,7.98 c-6.67,2.12-13.03,5.17-18.86,9.04c-2.25,1.49-4.5,3.15-7.12,3.78c-2.63,0.63-5.81-0.08-7.18-2.42 C321.44,711.32,313.89,714.74,313.09,717.94"/> <path class="st1" d="M313.09,717.94c-7.95,1.43-16.55-1.68-21.76-7.85c-0.78,4.76-7.51,6.34-11.65,3.88 c-4.15-2.47-6.23-7.24-8.04-11.7c-1.14,2.22-15.77,5.63-16.9,7.85c-19.66-7.11-36.5-21.74-46.28-40.22 c-1.79-3.38-3.43-6.98-6.34-9.46c-2.91-2.47-7.57-3.42-10.49-0.96c-1.22,1.03-2.05,2.55-3.48,3.26c-3.77,1.85-7.25-3.18-7.92-7.33 c-0.67-4.15-1.44-9.46-5.52-10.45c-6.63-1.62-9.63,10.56-16.45,10.4c-5.38-0.12-6.99-7.32-6.96-12.7 c0.03-5.39-1.56-12.58-6.95-12.72c-3.18-0.08-5.62,2.6-8.24,4.4c-2.62,1.79-10.67-0.1-10.79-3.28c-0.22-5.91-0.45-11.81-0.67-17.72 c-4.21,5.19-13.45,2.08-16.36-3.94c-2.9-6.02-1.48-13.14-0.01-19.66c-4.99,3.01-11.82-1.02-13.88-6.47 c-2.06-5.45-0.78-11.53,0.5-17.21c-1.43-0.15-2.88-0.31-4.32-0.46c4.1-24.05,0.65-49.32-9.73-71.39 c-7.25-15.42-7.48-33.95-7.27-52.36c0.14-0.13,0.28-0.27,0.41-0.4c13.55-13.06,29.04-24.45,39.68-39.97 c4.77-6.96,26.6-22.83,34.21-23.87c7.6-1.04,15.14,1.97,22.1,5.22c19.45,9.06,42.89,14.71,56.59,31.22 c6.53,7.88,13.18,15.85,21.66,21.57c8.48,5.73,19.19,8.97,29.07,6.34c9.17-2.44,16.74-9.63,26.14-10.96 c8.17-1.16,16.17,2.28,24.04,4.75c7.87,2.46,17.09,3.79,23.83-0.95c10.09-7.1,8.7-23.14,17.02-32.25c5.19-5.68,13.2-7.64,20.71-9.33 c32.93-7.37,69.64-14.2,98.61,3.1c21.42,12.79,25.46,41.13,38.35,62.67c-1.41,1.65-2.93,3.22-4.53,4.69 c9.89,10.25,7.81,26.71,5.06,40.69c-1.91,9.69-3.82,19.37-5.73,29.06c-1.64,3.42-3.27,6.83-4.91,10.25 c-13.13,16.08-19.53,37.5-17.37,58.15c-2.6,8.49-10.96,14.89-19.85,15.16c-14.52,15.49-34.58,27.97-42.63,47.61 c-5.76,14.06-21.02,21.87-35.84,25.18c-14.82,3.32-30.34,3.4-44.82,7.98c-6.67,2.12-13.03,5.17-18.86,9.04 c-2.25,1.49-4.5,3.15-7.12,3.78c-2.63,0.63-5.81-0.08-7.18-2.42C321.44,711.32,313.89,714.74,313.09,717.94"/> <path class="st2" d="M454.46,527.43c-3.07-15.04-14.94-23.12-28.71-27.62c-5.9-1.93-12.04-3.15-17.76-5.53 c-10.91-4.54-21.48-9.98-32.4-14.54c-3.91-1.63-7.87-3.25-11.33-5.7c-8.43-5.97-11.83-18.3-10.62-28.18 c1.2-9.73,6-18.34,12.15-25.79c-10.8-7.39-24.14-10.71-36.99-12.17c-26.35-2.99-53.69-4.19-78.38,6.97 c-0.37,0.17-0.75,0.35-1.13,0.53c4.81,9.65,7.53,20.42,7.31,31.23c-0.22,10.39-3.46,20.72-10.21,28.72 c-7.01,8.32-16.58,12.84-27.16,14.75c-10.83,1.96-21.95,1.66-32.75,3.82c-5.73,1.15-10.88,3.73-16.1,6.5 c-17.54,9.34-16.21,31.34-11.26,37.93c5.52,7.35,15.28,9.78,24.26,11.74c20.69,4.5,41.57,9.02,62.74,9.03 c20.25,0.01,40.24-4.09,60.34-6.53s40.96-3.15,60.12,3.42c9.98,3.42,21.5,0.37,32.05,0.56c10.55,0.19,20.14-5.94,30.69-6.03 C451.48,550.33,454.85,529.39,454.46,527.43z"/> <path class="st3" d="M435.59,575.03c-11.95,10.58-19.81,25.66-21.65,41.51c-1.87-4.15-2.81-8.71-2.74-13.26 c0.39,5.8-2.49,11.72-7.31,14.98c-0.26-2.83-0.56-5.77-2.06-8.18c-1.5-2.41-4.58-4.1-7.22-3.06c-2,0.78-3.18,2.81-4.16,4.71 c-5.12,9.92-9.07,20.43-11.76,31.26c-2.79-3.22-5.58-6.44-8.37-9.66c-0.41,3.83-1.95,7.53-4.38,10.51c-3.38-1.95-4-6.44-4.92-10.24 c-0.91-3.8-3.63-8.14-7.49-7.54c-2.19,0.34-3.77,2.21-5.1,3.98c-5.95,7.9-11.13,16.38-15.44,25.28c-1.17-4-2.33-8-3.5-11.99 c-2.39,3.59-4.79,7.19-7.18,10.78c1.9-1.44-0.79-4.56-3.12-4.12s-4.03,2.46-6.21,3.43c-4.21,1.88-9.32-0.76-11.78-4.66 c-2.46-3.9-2.92-8.68-3.32-13.27c-4.78,6.17-9.82,13.25-14.6,19.42c0.46-4.21,0.93-8.43,1.39-12.64c-7.4,2.55-14.04,7.26-18.9,13.4 c0.11-9.3,0.22-18.59,0.33-27.89c-5.53,1.6-10.71,4.36-15.14,8.04c-1.27-3.37-2.54-6.74-3.81-10.11c-1.65,3.63-7.63,2.74-9.73-0.66 s-1.49-7.73-0.82-11.66c-7.27,1.8-15.39-4.4-15.57-11.89c-0.23,6.34,1.18,12.7,0.95,19.04c-5.21-4.85-8.75-11.46-9.92-18.48 c-3.35,2.92-7.63,4.75-12.05,5.16c4.27-12.81,1.08-27.81-8.01-37.79c30.72-3.94,60.36,11.91,91.16,15.19 c19.48,2.08,39.27-0.92,58.72,1.44c11.66,1.41,23.44,4.74,34.96,2.42c15.04-3.02,26.73-15.09,41.34-19.77 C424.24,566.78,431.6,570.08,435.59,575.03z"/> <path class="st4" d="M338.29,621.41c-18.33,9-45.43,7.07-63.94-1.57c-18.51-8.63-29.6-23.43-46.58-34.78 c27.27,7.72,55.78,9.75,84.02,9.03c14.18-0.36,28.34-1.4,42.45-2.75c5.64-0.54,14.81-3.38,20.27-1.93c7.96,2.11,1.8,5.17-2.01,7.35 C360.24,603.77,351.04,615.14,338.29,621.41z"/> <path class="st5" d="M458.92,535.94c-1.32-7.63-5.91-14.65-12.49-20.66c-3.28-3-10.73-5.25-15.13-5.88 c-4.72-0.67-9.44,1.46-13.27,4.3c-3.83,2.84-7.08,6.41-10.9,9.27c-7.94,5.95-17.85,8.48-27.48,10.89 c-31.02,7.76,2.64-40.09-27.12-37.89c-2.63,0.19-5.12,1.13-7.54,2.4c-4.91,2.57-9.54,6.5-14.46,8.39 c-7.71,2.95-42.52,2.99-50.24,0.09c-4.93-1.85-9.58-5.76-14.51-8.29c-2.43-1.25-4.92-2.17-7.55-2.35 c-29-1.95,1.25,38.83-20.35,39.47c-2.75,0.08-5.41-0.89-7.99-1.84c-9.95-3.67-17.69-7.49-25.16-15.24 c-5-5.18-9.44-11.61-16.14-14.74c-12.05-5.63-29.33,7.72-32.1,20.37c-3.54,16.18,2.93,29.75,7.41,35.59c4,5.22,11.08,8,16.92,10.46 c18.2,7.7,36.75,14.55,55.44,20.95c8.02,2.75,17.79,4.36,24.71,9.38c7.23,5.25,12.54,12,20.94,15.65 c15.52,6.74,41.01,6.99,54.89-3.77c5.48-4.25,10.18-10.23,17.16-12.01c25.8-6.59,51.19-15.08,76.09-24.5 c10.97-4.15,21.19-12.26,26.37-23.19C459.15,546.97,459.84,541.3,458.92,535.94z"/> <g> <path class="st6" d="M275.14,413.7c-2.33-8.12-6.15-15.72-10-23.24c-2.39-4.67-5.53-9.88-10.72-10.69 c-3.36-0.53-6.72,1.02-9.42,3.08c-2.7,2.06-4.98,4.64-7.69,6.68c-6.09,4.58-14.14,6.11-21.7,5.11c-7.56-1-14.65-4.36-20.9-8.71 c-3.27-2.28-6.36-4.84-9.86-6.73c-3.5-1.89-7.56-3.09-11.48-2.35c-2.17,0.41-4.24,1.52-5.76,3.1c-3.02,11.41-0.31,24.1,6.59,33.72 c7.26,10.11,18.83,16.81,31.09,18.99c4.03,0.71,8.16,0.97,12.09,2.11c3.93,1.14,7.79,3.31,9.82,6.87c1.49,2.61,1.89,5.76,3.5,8.3 c1.92,3.03,5.37,4.82,8.89,5.52c3.52,0.7,7.14,0.44,10.72,0.18c6.59-0.48,13.64-1.14,18.77-5.31c3.55-2.89,5.74-7.18,6.95-11.6 C278.27,430.56,277.48,421.81,275.14,413.7z"/> <path class="st6" d="M167.06,380.57c-0.93,1.15-1.56,2.5-1.76,3.98L167.06,380.57z"/> <path class="st6" d="M167.06,380.57c0.18-0.22,0.37-0.43,0.56-0.63c0.16-0.6,0.32-1.19,0.51-1.78L167.06,380.57z"/> </g> <g> <path class="st6" d="M336.3,412.59c2.94-7.92,7.32-15.21,11.73-22.41c2.74-4.48,6.27-9.43,11.5-9.85c3.39-0.27,6.62,1.53,9.16,3.79 c2.54,2.26,4.61,5,7.16,7.24c5.73,5.03,13.64,7.16,21.25,6.74c7.61-0.42,14.94-3.23,21.5-7.1c3.43-2.02,6.7-4.34,10.34-5.96 c3.64-1.62,7.77-2.51,11.62-1.47c2.13,0.57,4.12,1.84,5.51,3.53c2.14,11.61-1.52,24.06-9.13,33.12 c-8.01,9.53-20.06,15.33-32.45,16.57c-4.07,0.41-8.21,0.35-12.22,1.18c-4.01,0.83-8.01,2.71-10.31,6.1 c-1.69,2.49-2.32,5.6-4.12,8.01c-2.15,2.87-5.72,4.4-9.28,4.83c-3.56,0.43-7.16-0.1-10.7-0.63c-6.54-0.98-13.52-2.17-18.31-6.72 c-3.32-3.15-5.18-7.6-6.05-12.1C331.9,429.17,333.35,420.51,336.3,412.59z"/> <path class="st6" d="M446.59,387.78c0.83,1.22,1.37,2.62,1.46,4.11L446.59,387.78z"/> <path class="st6" d="M446.59,387.78c-0.16-0.23-0.33-0.46-0.51-0.67c-0.11-0.61-0.23-1.21-0.37-1.82L446.59,387.78z"/> </g> <path class="st7" d="M337.04,198.09c0.02,0.01,0.06,0.07,0.11,0.17C337.09,198.18,337.06,198.12,337.04,198.09z"/> <path class="st3" d="M83.42,219.52c3.04,12.11,8.13,24.11,17.12,32.77s22.46,13.42,34.36,9.63c15.47-4.92,23.65-21.95,26.58-37.91 c7.57-41.23-10.65-90.75-47-113.55c-25.98-16.3-27.18,4.44-30.4,24.9C79.69,163.31,76.44,191.66,83.42,219.52z"/> <path class="st3" d="M530.73,181.9c10.14-77.13-30.84-74.37-32.64-67.88c-8.33,30.06-16.68,60.24-20.53,91.19 c-1.27,10.17-2.04,20.58,0.14,30.6c2.17,10.02,7.65,19.71,16.45,24.95C536.39,285.91,528.03,202.4,530.73,181.9z"/> <path class="st5" d="M130.16,252.21c4.56-5.31-1.18-25.96-6.67-24.57c-5.49,1.39-11.94,0.47-15.72-3.74 c7.24-4.9,14.47-9.81,21.71-14.71c-8.73-3.86-17.46-7.73-26.19-11.59c10.51-5.57,21.02-11.13,31.54-16.7 c-9.09-1.86-17.59-6.48-24.09-13.1c4.63-0.24,8.11-5.8,6.3-10.08c-1.81-4.27-8.22-5.64-11.62-2.48c1.21-2.08,2.43-4.16,3.64-6.24 c-6.95-1.64-14.3-1.58-21.22,0.18c3.01-5.12,6.02-10.24,9.03-15.36c-3.53-0.62-7.06-1.24-10.6-1.86c0.45-6.08,0.95-12.31,3.51-17.84 s7.7-10.29,13.79-10.62c5.95-0.32,11.3,3.5,15.59,7.63c28.5,27.37,37.38,67.05,57.88,102.62c7.41,12.86,10.84,22.67-5.39,25.13 C155.63,241.3,143.45,240.02,130.16,252.21z"/> <path class="st5" d="M478.72,120.04c4.01-7.09,9.27-14.46,17.19-16.37c6.93-1.67,14.32,1.45,19.54,6.3 c5.23,4.85,8.7,11.25,12.08,17.53c-5.02-0.11-10.05-0.22-15.07-0.33c2,2.59,4,5.18,5.99,7.76c-4.95,1.07-9.89,2.15-14.84,3.22 c7.52,3.82,12.94,11.52,14,19.89c-11.73-4.3-25.89-0.95-34.45,8.16c6.93,0.79,13.85,1.59,20.78,2.38 c-9.3,3.35-17.02,10.86-20.61,20.07c4.33,0.73,8.66,1.46,12.99,2.19c-0.41,5.3-7.64,7.07-10.2,11.72 c-3.01,5.48,12.34,8.99,8.33,13.79c-9.08,10.87,10.45,24.76,14.05,26.99c-24.48,16.96-56.11-0.41-56.11-29.27 C452.38,183.3,463.82,146.41,478.72,120.04z"/> <line class="st7" x1="306.25" y1="355.44" x2="306.35" y2="194.54"/> <path class="st4" d="M232.28,346.27c1.49,11.1,9.62,21.04,20.2,24.69c-3.74-11.08-4.08-23.28-0.96-34.55 c2.17-7.83,4.69-28.52-8.78-20.73C235.3,319.98,231.27,338.72,232.28,346.27z"/> <path class="st4" d="M259.29,408.02c-8.91-17.56-27.04-30.09-46.61-32.23c-12.77-1.39-25.67,1.37-38.5,0.65 c-14.01-0.79-28.11-5.71-41.8-2.63c-12.71,2.86-23.11,12.41-29.92,23.52c-6.81,11.11-10.52,23.8-14.15,36.31 c10.9-10.36,21.8-20.72,32.7-31.07c6.43-6.11,13.01-12.32,21.05-16.05c8.04-3.73,17.96-4.59,25.54,0 c14.91,9.03,13.79,33.17,28.25,42.91c8.28,5.58,19.09,4.66,29.03,5.53c11.73,1.03,22.56,6.5,23.26,19.15 c0.37,6.7-8.37,23.82,2.91,19.45c6.45-2.5,11.61-19.53,13.03-25.42C267.28,434.89,265.46,420.17,259.29,408.02z"/> <path class="st8" d="M247.68,414.92c-2.72,5.27-8.17,8.68-13.85,10.44c-5.73,1.78-11.89,2.02-17.78,0.85 c-6.2-1.21-12.08-3.98-16.85-8.13c-7.42-6.44-16.27-21.69-11.71-31.89c2.09-4.66,7.8-5.21,12.28-5.7c0.43-0.05,0.85-0.09,1.28-0.13 c6.92-0.64,13.94-0.29,20.76,1.05c8.05,1.59,16.12,4.74,21.67,10.78C249.03,398.23,251.46,407.63,247.68,414.92z"/> <path class="st9" d="M247.68,414.92c-2.72,5.27-8.17,8.68-13.85,10.44c-5.73,1.78-11.89,2.02-17.78,0.85 c9.47-0.42,30.14-3.88,27.2-21.6c-1.24-7.49-7.4-13.26-14.59-15.72c-7.19-2.46-13.27-4.23-20.44-6.73c-2.01-0.7-7.18-1.8-7.18-1.8 c6.92-0.64,13.94-0.29,20.76,1.05c8.05,1.59,16.12,4.74,21.67,10.78C249.03,398.23,251.46,407.63,247.68,414.92z"/> <path class="st10" d="M228.09,393.07c-1.58-2.89-4.56-5.04-7.65-6.09c-2.54-0.86-5.41-0.91-7.86,0.18 c-4.36,1.94-6.79,7.04-6.96,11.61c-0.17,4.42,0.99,9.14,4.22,12.32c2.39,2.35,5.89,3.64,9.19,3.02 c7.31-1.38,11.45-10.87,10.26-17.61C229.07,395.26,228.66,394.11,228.09,393.07z"/> <path class="st11" d="M201.53,399.23c-0.35,2.37-0.69,4.81-0.11,7.13c0.98,3.89,4.44,6.73,8.18,8.2c5.09,2,10.97,1.86,15.96-0.37 c1.25-0.56,2.91-1.17,3.81-0.14c0.87,0.99,0.11,2.56-0.82,3.5c-3.63,3.68-10.03,6.26-15.02,4.9c-4.99-1.35-9.14-3.07-12.96-6.55 c-4.95-4.5-7.37-13.33-6.38-19.95c0.46-3.06,3.46-11.95,7.77-9.91C204.82,387.39,201.88,396.84,201.53,399.23z"/> <ellipse transform="matrix(0.038 -0.9993 0.9993 0.038 -189.8005 603.0065)" cx="218.3" cy="400.08" rx="13.35" ry="8.19"/> <circle class="st12" cx="218.92" cy="398.71" r="3.11"/> <path class="st4" d="M243.05,519.36c-0.47,0.81-0.94,1.65-1.09,2.58c-0.15,0.93,0.09,1.98,0.84,2.55c1.11,0.85,2.92,0.14,3.39-1.17 c0.47-1.31-0.25-2.85-1.44-3.57c-1.19-0.72-2.71-0.72-4.04-0.28"/> <path class="st4" d="M227.27,518.15c-0.44,1.19-0.39,2.62,0.39,3.62c0.78,1,2.4,1.34,3.37,0.52c1.26-1.07,0.5-3.45-1.09-3.88 c-1.6-0.43-3.31,0.84-3.73,2.44"/> <path class="st4" d="M234,536.16c-0.95,1.1-0.54,3.07,0.78,3.67c1.32,0.61,3.1-0.38,3.26-1.82c0.16-1.44-1.37-2.8-2.78-2.45 c-1.41,0.35-2.12,2.3-1.26,3.46"/> <path class="st4" d="M366.09,517.88c-1.42-0.09-2.82,1.01-3.05,2.41c-0.23,1.4,0.73,2.9,2.1,3.28c1.37,0.37,2.96-0.43,3.47-1.76 c0.48-1.26-0.11-2.89-1.36-3.41s-2.91,0.31-3.11,1.65"/> <path class="st4" d="M380.98,520.06c-1.47,0-2.66,1.69-2.18,3.08c0.49,1.39,2.47,1.97,3.63,1.07c1.16-0.9,1.11-2.95-0.1-3.79 c-1.21-0.84-3.14-0.2-3.61,1.19"/> <path class="st4" d="M376.41,537.8c-1.12-0.8-2.87-0.32-3.56,0.87c-0.69,1.19-0.34,2.83,0.67,3.77c1.23,1.15,3.39,1.18,4.56-0.03 c1.17-1.22,0.95-3.51-0.49-4.38c-1.44-0.87-3.67,0.16-3.82,1.84"/> <path class="st4" d="M126.66,491.27c5.81-0.76,10.99-3.92,15.91-7.1c4.92-3.18,9.94-6.51,15.68-7.69 c11.08-2.28,22.08,3.85,33.36,4.67c11.07,0.81,22.42-3.87,29.69-12.26c3.44-3.97,6.08-9.12,5.34-14.33 c-0.87-6.07-6.15-10.7-11.86-12.94s-11.95-2.64-17.98-3.73c-11.82-2.13-23.13-7.01-32.78-14.15c-6.51-4.81-12.33-10.66-19.47-14.47 c-2.82-1.5-6.08-2.69-9.17-1.86c-3.28,0.89-5.62,3.95-6.53,7.22c-2.23,7.93,2.72,16.16,8.75,21.76s13.41,9.84,18.42,16.37 c2.3,3,4.07,7.08,2.42,10.49c-1.31,2.71-4.39,4.1-7.35,4.68c-5.63,1.11-11.42,0.1-17.12-0.52c-5.7-0.62-11.74-0.8-16.87,1.77 c-4.78,2.39-9.81,9.49-6.9,14.93C113.02,489.4,121.13,491.99,126.66,491.27z"/> <path class="st4" d="M539.11,344.25c-0.96,4.8-1.82,9.63-2.59,14.46c-0.51-0.14-1.02-0.31-1.52-0.51 c-6.86-2.66-11.42-9.01-16.36-14.47c-4.94-5.45-11.64-10.59-18.91-9.48c1.1-15.62-4.42-31.6-14.93-43.21 c1.67-5.24,2.31-10.81,1.88-16.29c-4.68-0.02-9.35-0.04-14.03-0.06c0.14-4.15,0.29-8.31,0.43-12.46 c-5.32,0.01-10.65,0.02-15.98,0.03c0.12-4.53,0.25-9.06,0.36-13.58c-4.98,1.8-9.97,3.61-14.96,5.42c1.01-5.12,2.03-10.24,3.04-15.36 c-9.46,2.16-19.75-4.37-22.81-13.58c-3.05-9.21,0.72-19.96,8.21-26.13c14.53-11.98,44.5-7.24,24.27,14.08 c4.51,0.54,9.02,1.07,13.53,1.6c-5.21,4.08-7.95,11.1-6.87,17.64c7.83-1.72,15.66-3.42,23.49-5.14 c-9.02,2.57-13.14,15.33-7.33,22.69c4.01-4.91,8.02-9.81,12.03-14.72c3.07,6.62,4.34,14.05,3.64,21.31 c5.28,0.25,10.6-2.45,13.52-6.85c0.52,6.7,1.03,13.4,1.56,20.1c4.33-4.35,7.44-9.92,8.85-15.89c4.43,4.69,6.14,11.78,4.36,17.99 c2.06-2.27,4.13-4.53,6.2-6.8c-2.78,8.86-5.55,17.71-8.33,26.56c2.88-6.66,12.44-8.1,18.52-4.2l0,0.01 c-0.12,1.59-0.24,3.17-0.36,4.76c0.93,11.4-1.88,23.07-7.9,32.8c2.76-2.05,5.53-4.1,8.29-6.14c-0.59,9.2-1.17,18.4-1.76,27.6 C537.49,345.71,538.3,344.98,539.11,344.25z"/> <path class="st4" d="M212.53,343.84l-1.28-15.9c0.65-1.41-1.04-3-2.58-2.84c-1.54,0.15-2.74,1.38-3.71,2.59 c-3.98,5.04-6.35,11.7-4.94,17.97c1.41,6.27,7.28,11.64,13.69,11.2c2.45-0.17,5.13-1.48,5.68-3.87 C220.3,349.05,215.41,346.66,212.53,343.84z"/> <path class="st4" d="M148.45,325.36c-4.1-3-8.19-6-12.29-9c7.84-1.12,12.67-11.42,8.52-18.16c2.49-0.05,4.97-0.11,7.46-0.16 c-0.97-5.41,3.53-10.14,7.87-13.51c19.19-14.91,43.16-23.57,67.44-24.38c-22.52,12.69-49.14,30.61-61.99,53.03 c-2.03,3.55-3.81,7.33-6.64,10.27C155.98,326.4,151.75,327.78,148.45,325.36z"/> <path class="st4" d="M384.16,348.62c-2.32,10.95-11.19,20.24-22.02,23.08c4.58-10.76,5.84-22.9,3.58-34.37 c-1.57-7.97-2.5-28.79,10.33-20.01C383.15,322.18,385.74,341.18,384.16,348.62z"/> <path class="st4" d="M352.54,408.14c10.22-16.83,29.25-27.95,48.93-28.59c12.84-0.42,25.49,3.32,38.34,3.58 c14.03,0.28,28.46-3.56,41.88,0.56c12.46,3.82,22.1,14.13,28.04,25.73c5.94,11.6,8.68,24.53,11.35,37.29 c-10.08-11.16-20.16-22.31-30.24-33.47c-5.94-6.58-12.03-13.27-19.77-17.6c-7.74-4.33-17.56-5.94-25.47-1.94 c-15.56,7.87-16.27,32.03-31.43,40.64c-8.68,4.93-19.39,3.19-29.37,3.31c-11.78,0.14-22.99,4.76-24.65,17.33 c-0.88,6.65,6.54,24.39-4.38,19.17c-6.24-2.98-10.09-20.36-11.06-26.34C342.53,434.33,345.47,419.79,352.54,408.14z"/> <path class="st8" d="M411.7,422.74c-5.07,3.77-11.16,6.08-17.43,6.83c-5.96,0.71-12.08,0-17.66-2.2c-5.52-2.19-10.69-6-13.01-11.46 c-3.21-7.56-0.08-16.75,5.92-22.35c6-5.61,14.29-8.14,22.43-9.11c6.91-0.81,13.93-0.63,20.78,0.53c0.42,0.08,0.84,0.15,1.26,0.23 c4.42,0.83,10.08,1.81,11.81,6.62C429.57,402.35,419.59,416.87,411.7,422.74z"/> <path class="st9" d="M368.79,405.95c-0.94,7.44,0.72,13.63,6.86,17.91c4.73,3.3,10.65,4.86,18.61,5.71c-5.96,0.71-12.08,0-17.66-2.2 c-5.52-2.19-10.69-6-13.01-11.46c-3.21-7.56-0.08-16.75,5.92-22.35c6-5.61,14.29-8.14,22.43-9.11c6.91-0.81,13.93-0.63,20.78,0.53 c0,0-4.57,0.71-6.63,1.26c-7.34,1.94-14.2,3.24-21.56,5.14S369.74,398.41,368.79,405.95z"/> <path class="st10" d="M406.88,400.85c-0.06-0.45-0.15-0.9-0.25-1.34c-1.55-6.56-7.75-10.84-14.45-9.2 c-3.05,0.75-5.85,2.73-7.46,5.43c-1.32,2.22-1.83,4.85-1.8,7.43c0.04,3.41,1.03,6.85,3.07,9.58c3.66,4.88,11.25,7.05,16.16,2.72 c2.01-1.78,3.3-4.25,4.07-6.82C406.96,406.13,407.25,403.44,406.88,400.85z"/> <path class="st11" d="M410.8,403.76c0.17,2.39,0.32,4.85-0.44,7.11c-1.27,3.8-4.94,6.38-8.78,7.55c-5.22,1.6-11.08,1.02-15.89-1.58 c-1.2-0.65-2.81-1.39-3.79-0.43c-0.94,0.93-0.31,2.54,0.55,3.55c3.34,3.95,12.76,5.8,17.84,4.83c5.08-0.97,8.84-2.8,13.18-7.19 c4.7-4.75,7.27-10.2,6.79-16.88c-0.22-3.08-4.45-11.86-8.9-10.15C408.42,391.71,410.63,401.36,410.8,403.76z"/> <ellipse transform="matrix(0.9998 -0.018 0.018 0.9998 -7.1965 7.1577)" cx="394.01" cy="403.34" rx="8.19" ry="13.35"/> <circle class="st12" cx="393.5" cy="401.92" r="3.11"/> <path class="st4" d="M478.45,501.23c-5.73-1.2-10.66-4.75-15.33-8.29s-9.42-7.25-15.05-8.86c-10.87-3.12-22.31,2.16-33.62,2.12 c-11.1-0.03-22.06-5.57-28.68-14.48c-3.13-4.22-5.37-9.56-4.23-14.69c1.33-5.99,6.95-10.2,12.81-12c5.86-1.8,12.11-1.73,18.22-2.35 c11.94-1.23,23.59-5.23,33.76-11.62c6.86-4.3,13.1-9.69,20.52-12.95c2.93-1.29,6.27-2.22,9.28-1.15c3.2,1.13,5.3,4.36,5.97,7.69 c1.62,8.07-3.94,15.91-10.38,21.03s-14.12,8.79-19.61,14.93c-2.52,2.82-4.59,6.75-3.21,10.27c1.1,2.81,4.07,4.42,6.97,5.22 c5.53,1.53,11.38,0.97,17.11,0.78c5.73-0.19,11.77,0.1,16.69,3.05c4.58,2.75,9.06,10.21,5.75,15.41 C492.2,500.41,483.91,502.37,478.45,501.23z"/> <path class="st4" d="M412.81,332.17c-0.87-1.29-1.97-2.6-3.5-2.87c-1.53-0.27-3.33,1.18-2.79,2.64l-2.49,15.76 c-3.08,2.6-8.14,4.61-7.54,8.6c0.37,2.43,2.94,3.94,5.37,4.29c6.36,0.93,12.62-3.99,14.5-10.13 C418.25,344.32,416.4,337.5,412.81,332.17z"/> <path class="st4" d="M480.02,336c4.31-2.68,8.62-5.36,12.94-8.04c-7.73-1.71-11.76-12.35-7.12-18.76c-2.48-0.24-4.95-0.49-7.43-0.73 c1.38-5.32-2.75-10.38-6.82-14.07c-18-16.32-41.24-26.78-65.39-29.43c21.49,14.36,46.67,34.26,57.78,57.59 c1.76,3.69,3.24,7.59,5.84,10.75S476.55,338.16,480.02,336z"/> <path class="st4" d="M197.36,226.23c-3.74,8.96-14.5,14.68-23.77,11.81c0.62,5.18,1.24,10.36,1.86,15.54 c-4.83-2.18-9.67-4.36-14.5-6.54c-0.23,4.52-0.45,9.05-0.68,13.57c-5.3-0.42-10.62-0.83-15.92-1.25c-0.17,4.15-0.34,8.3-0.52,12.45 c-4.66-0.34-9.33-0.67-13.99-1.01c-0.85,5.43-0.63,11.04,0.63,16.39c-11.37,10.77-18.08,26.29-18.17,41.95 c-7.17-1.66-14.24,2.95-19.58,8.01c-5.34,5.06-10.38,11.05-17.42,13.19c-2.21,0.67-4.47,0.84-6.69,0.6 c1.07-2.11,2.15-4.23,3.22-6.34c-2.33-1.84-4.65-3.68-6.98-5.52c12.35-5.82,15.99-22.13,13.46-35.55 c-1.25-6.61-3.57-12.93-5.97-19.23c0.79-1.26,1.77-2.41,2.93-3.4c6.16-5.25,17.54-3.45,20.18,4.19c-2.1-9.04-4.19-18.08-6.29-27.12 c1.89,2.42,3.78,4.84,5.67,7.26c-1.31-6.32,0.94-13.26,5.71-17.6c0.95,6.06,3.62,11.86,7.61,16.52c1.03-6.64,2.05-13.28,3.08-19.92 c2.58,4.61,7.68,7.7,12.96,7.86c-0.13-7.29,1.7-14.6,5.26-20.97c3.63,5.2,7.25,10.39,10.87,15.59c6.36-6.9,3.22-19.94-5.58-23.19 c7.68,2.31,15.36,4.6,23.03,6.91c1.57-6.43-0.61-13.64-5.5-18.11c4.54-0.18,9.07-0.37,13.61-0.57 c-18.55-22.8,11.69-25.24,25.26-12.2C198.16,206.28,201.1,217.27,197.36,226.23z"/> <path class="st4" d="M344.52,494.4c-0.8-4.66-2.05-9.68-0.84-14.38c0.58-2.25,4.88-6.83,2.27-8.44c-7.98-4.9-6.38,16.19-6.05,18.66 c0.38,2.8,0.68,6.31-1.73,7.79c-1.82,1.12-4.15,0.36-6.24-0.15c-4.34-1.07-8.99-0.82-13.21,0.69c-4.23,1.51-8.08,4.54-12.68,5.05 c-2.28,0.25-4.79-0.92-6.82-1.83c-2.4-1.07-4.72-2.32-7.2-3.19c-4.22-1.48-8.88-1.69-13.21-0.6c-2.08,0.52-4.41,1.3-6.24,0.19 c-2.42-1.47-2.14-4.98-1.78-7.78c0.31-2.48,1.78-23.58-6.17-18.62c-2.6,1.63,1.74,6.18,2.33,8.43c1.25,4.7,0.02,9.72-0.74,14.39 c-0.21,1.28-0.37,2.61-0.44,3.96c-0.26,4.73,0.57,9.54,4.14,12.39c5.01,3.98,13.17,2.14,17.72,6.65c1.9,1.88,2.77,4.52,3.69,7.03 c1.89,5.15,4.26,10.12,7.06,14.84c1.46,2.47,3.76,5.02,6.8,5.29c3.54,0.31,5.84-2.52,7.45-5.28c2.77-4.73,5.11-9.72,6.97-14.88 c0.9-2.52,1.76-5.16,3.64-7.05c4.52-4.54,12.7-2.75,17.68-6.76c3.56-2.86,4.35-7.68,4.06-12.41 C344.91,497.02,344.74,495.68,344.52,494.4z"/> <path class="st4" d="M329.49,572.89c-5.87-1.96-11.5-4.84-16.25-8.84c-2.47-2.08-4.8-6.56-8.72-5.56c-2.48,0.64-4.69,4.01-6.56,5.61 c-4.73,4.02-10.34,6.94-16.2,8.94c-9.17,3.13-18.92,4.16-28.55,5.17c5.6,2.45,11.43,4.37,17.4,5.74c5.96,1.37,12.05,2.17,18.15,2.53 c6.2,0.37,12.41,0.28,18.61,0.19c6-0.09,12.02-0.04,18.01-0.55c5.16-0.44,10.3-1.2,15.34-2.39c5.96-1.41,11.77-3.36,17.36-5.85 C348.43,576.93,338.68,575.96,329.49,572.89z"/> <path class="st4" d="M382.51,211.67c-0.21-7.72-0.42-15.45-0.63-23.17c0.2,7.22-16.46,12.32-21.66,12.47 c-6.39,0.18-12.59-1.95-18.76-3.61c-23.16-6.24-48.01-6.07-71.08,0.49c-6.35,1.81-12.71,4.11-19.31,3.96 c-8.67-0.19-17.12-4.94-21.79-12.25c-0.14,7.47-0.28,14.95-0.42,22.42c-0.16,8.77,6.32,7.09,12.45,10.35 c6.11,3.25,7.46,11.26,8.1,18.16c1.06,11.39,2.12,22.77,3.18,34.16c1.03-0.18,2.06-0.36,3.09-0.55c0.11,6.51,0.22,13.02,0.33,19.53 c1.46-0.66,3.04-1.04,4.64-1.13c-0.13,5.47,0.18,10.94,0.91,16.36c0.22,1.66,0.11,5.22,1.6,6.14c2.42,1.49,3.84-1.89,5.99,1.44 c2.04,3.16-0.49,9.73-0.84,13.11c-0.65,6.17,1.16,12.57,4.95,17.48c3.07,3.98,8.43,6.26,12.11,1.67c3.75-4.67,0.86-13.09-2.34-17.47 c1.37,0.09,2.74,0.17,4.11,0.26c-1.99-9.29-4.96-18.37-8.87-27.03c0.45,1.01,4.41,1.61,5.24,1.59c-0.17-16.29-4.09-32.12-5.93-48.23 c1.65,4.34,2.71,9.41,3.97,14.03c0.89,3.26,5.1,12.12,4.15,15.23c0.82-2.67,1.64-5.34,2.46-8.01c0.7,5.95,1.4,11.89,2.11,17.84 c0.94-0.96,1.87-1.92,2.81-2.88c-1.05,1.07,0.49,9.5,0.56,10.88c0.26,4.81,0.53,9.63,0.79,14.44c1.1-0.58,2.2-1.17,3.29-1.75 c-0.7,11.56,1.25,23.27,5.68,33.97c3.98,9.65,9-8.68,9.55-11.35c2.04-9.91-0.25-20.13,0.61-30.14c1.65,0.95,3.31,1.9,4.96,2.84 c0.31-7.4,0.92-14.79,1.84-22.14c-0.31,2.46,2.33,7.25,2.41,10.16c3.89-15.08,7.78-30.15,11.67-45.23 c-1.45,12.57-2.89,25.14-4.34,37.71c1.67-1.13,3.28-1.39,5.35-0.79c1.45,0.42-6.24,17.07-6.75,18.22c1.49,0.72,3.11,1.19,4.75,1.39 c-4.87,7.55-7.84,16.32-8.56,25.28c-0.25,3.13-0.14,6.39,1.21,9.29c0.85,1.82,2.38,3.44,4.33,3.92c3.07,0.75,6.08-1.42,8.15-3.81 c7.84-9.07,4.82-18.59,6.11-29.39c1.69,0.83,3.39,1.65,5.08,2.48c-0.04-8.84,0.68-17.68,2.15-26.39c1.29,0.83,2.57,1.66,3.86,2.49 c-0.17-8.34-0.34-16.68-0.51-25.02c1.28,1.13,2.56,2.27,3.83,3.4c-1.29-1.14,2.08-13.4,2.31-15.42c0.74-6.38-0.09-12.83,0.35-19.23 c0.59-8.53,4.53-18.1,12.79-20.33c2.53-0.69,5.59-0.8,7.08-2.96c0.93-1.36,0.92-3.13,0.88-4.77 C382.51,211.73,382.51,211.7,382.51,211.67z"/> <path class="st12" d="M223.13,527.74c-38.45-4.36-77.82,0.01-114.65,12.04c-36.83,12.02-71.26,31.75-99.85,58.07 c28.34-26.58,62.65-46.66,99.52-59.06c36.86-12.41,76.4-17.18,115.2-13.13c0.58,0.06,0.99,0.58,0.93,1.15 C224.23,527.39,223.72,527.8,223.13,527.74L223.13,527.74z"/> <path class="st12" d="M206.08,546.74c-39.04,1.26-77.78,10.67-113.34,26.95c-35.57,16.28-68.06,39.49-94.62,68.34 c26.3-29.08,58.63-52.63,94.18-69.29c35.54-16.66,74.38-26.48,113.71-28.1c0.58-0.02,1.07,0.43,1.09,1 C207.12,546.22,206.67,546.71,206.08,546.74L206.08,546.74z"/> <path class="st12" d="M-35.82,477.96c22.1-1.05,44.24-1.39,66.37-0.72c22.12,0.66,44.22,2.35,66.19,5.2 c21.96,2.86,43.77,6.87,65.34,11.88c21.58,5.01,42.92,10.99,64.04,17.66c0.55,0.17,0.86,0.76,0.68,1.31 c-0.17,0.55-0.76,0.86-1.31,0.68l-0.01,0c-21.02-6.82-42.27-12.96-63.76-18.13c-21.49-5.17-43.22-9.35-65.12-12.37 c-21.9-3.01-43.96-4.87-66.07-5.71C8.43,476.93-13.71,477.09-35.82,477.96"/> <path class="st12" d="M-26.81,525.51c16.25-4.05,32.77-6.94,49.4-8.94c16.63-2,33.36-3.12,50.11-3.6 c33.5-0.95,67.02,0.64,100.42,3.08c0.58,0.04,1.01,0.54,0.97,1.12c-0.04,0.58-0.54,1.01-1.12,0.97l-0.01,0 c-33.33-2.79-66.77-4.72-100.23-4.13c-16.72,0.3-33.44,1.24-50.07,3.07C6.02,518.92-10.52,521.63-26.81,525.51"/> <path class="st12" d="M210.75,567.32c-57.65,21.25-110.16,56.52-151.72,102c41.04-45.95,93.27-81.94,150.99-103.96 c0.54-0.21,1.15,0.06,1.35,0.61c0.21,0.54-0.06,1.15-0.61,1.35C210.75,567.32,210.75,567.32,210.75,567.32z"/> <path class="st12" d="M633.54,498.27c-21.67-2.09-43.47-2.5-65.21-1.99c-21.75,0.55-43.47,2.08-65.08,4.6 c-21.6,2.55-43.09,6.06-64.26,10.99c-10.58,2.47-21.07,5.31-31.39,8.65c-10.32,3.35-20.47,7.22-30.25,11.87l-0.01,0 c-0.52,0.25-1.15,0.03-1.4-0.5c-0.25-0.52-0.03-1.15,0.5-1.4l0.01,0c9.92-4.63,20.18-8.44,30.59-11.73 c10.41-3.29,20.97-6.05,31.6-8.44c21.28-4.77,42.84-8.11,64.49-10.5c21.66-2.35,43.41-3.71,65.18-4.08 C590.08,495.42,611.89,496,633.54,498.27"/> <path class="st12" d="M617.35,584.62c-16.34-6.69-32.63-13.52-49.19-19.62c-4.14-1.52-8.32-2.92-12.48-4.39 c-2.09-0.69-4.21-1.32-6.31-1.99c-2.11-0.64-4.2-1.34-6.32-1.94l-6.39-1.71c-2.13-0.56-4.25-1.18-6.41-1.61l-6.46-1.4 c-1.08-0.22-2.15-0.49-3.23-0.68l-3.26-0.53c-17.36-3.01-35.06-3.72-52.62-2.49c-17.57,1.2-34.97,4.17-52.17,7.94l-0.01,0 c-0.57,0.12-1.12-0.23-1.25-0.8c-0.12-0.57,0.23-1.12,0.8-1.25l0.01,0c17.32-3.62,34.84-6.43,52.53-7.47 c17.67-1.06,35.49-0.17,52.9,3.03l3.27,0.57c1.09,0.2,2.16,0.48,3.24,0.71l6.47,1.47c2.17,0.45,4.28,1.09,6.42,1.68l6.39,1.78 c2.12,0.62,4.21,1.34,6.32,2.01c2.1,0.69,4.21,1.34,6.3,2.05c4.15,1.51,8.33,2.95,12.46,4.52 C584.86,570.77,601.08,577.76,617.35,584.62"/> <path class="st12" d="M392.37,567.92c7.29-0.71,14.61-0.84,21.89-0.62c7.29,0.23,14.56,0.82,21.79,1.69 c14.46,1.76,28.78,4.57,42.82,8.39c14.03,3.84,27.82,8.65,40.99,14.83c6.58,3.1,13,6.55,19.1,10.5c6.1,3.95,11.9,8.39,17.05,13.52 c-5.21-5.07-11.05-9.44-17.19-13.3c-6.14-3.86-12.59-7.23-19.18-10.24c-13.21-6.01-27.01-10.63-41.04-14.29 c-14.04-3.64-28.33-6.27-42.73-7.84c-7.2-0.78-14.43-1.28-21.66-1.42c-7.23-0.13-14.46,0.09-21.63,0.87l-0.01,0 c-0.58,0.06-1.09-0.35-1.16-0.93c-0.06-0.58,0.35-1.09,0.93-1.16C392.36,567.92,392.36,567.92,392.37,567.92z"/> <path class="st12" d="M619.02,540.67c-17.54-4.9-35.4-8.56-53.4-11.23c-18-2.65-36.15-4.29-54.32-4.83 c-18.17-0.53-36.39,0.03-54.44,2.02c-18.04,2.01-35.96,5.43-53.18,11.07l0,0c-0.55,0.18-1.14-0.12-1.32-0.67 c-0.18-0.55,0.12-1.14,0.67-1.32l0.01,0c17.45-5.53,35.52-8.8,53.67-10.64c18.16-1.82,36.43-2.2,54.64-1.5 c18.21,0.71,36.37,2.54,54.37,5.36C583.7,531.76,601.53,535.6,619.02,540.67"/> <path class="st12" d="M373.32,580.66c11.87,2.76,23.5,6.41,34.9,10.61c11.4,4.22,22.59,9.01,33.42,14.52 c10.82,5.52,21.34,11.7,31.06,18.99c4.85,3.65,9.5,7.59,13.76,11.92c4.25,4.33,8.11,9.07,11.19,14.3 c-3.15-5.19-7.07-9.86-11.37-14.12c-4.31-4.26-9-8.12-13.88-11.68c-9.8-7.12-20.36-13.13-31.22-18.47 c-10.87-5.33-22.08-9.94-33.49-13.98c-11.41-4.02-23.03-7.47-34.82-10.04l-0.01,0c-0.57-0.12-0.92-0.68-0.8-1.25s0.68-0.92,1.25-0.8 C373.31,580.66,373.32,580.66,373.32,580.66z"/> <path class="st13" d="M406.58,394.19c0.61,0.39,1.38,0.39,2.1,0.37c1.05-0.02,2.09-0.05,3.14-0.07c0.57-0.01,1.17-0.03,1.67-0.31 c0.9-0.49,1.22-1.61,1.44-2.61c0.15-0.64,0.29-1.29,0.23-1.94c-0.06-0.65-0.36-1.32-0.93-1.65c-0.69-0.4-1.56-0.22-2.31,0.06 c-0.75,0.27-1.5,0.64-2.3,0.56c-1.59-0.15-3.75-1.05-4.36,1.2C404.97,390.95,405.58,393.54,406.58,394.19z"/> <path class="st14" d="M229.16,396.53c0.6,4.06,6.31,1.25,6.69-1.56c0.14-1.05,0.07-2.24-0.68-2.99c-0.78-0.77-2.02-0.8-3.09-0.58 C229.79,391.87,228.84,394.33,229.16,396.53z"/> </svg>