<?xml version="1.0" encoding="UTF-8"?>
<svg width="210mm" height="297mm" version="1.1" viewBox="0 0 744.09448819 1052.3622047" xmlns="http://www.w3.org/2000/svg">
 <g transform="matrix(.76597 0 0 .82742 78.54 96.379)" fill-rule="evenodd">
  <path d="m506.09 446.27c-3.351-1.97-1.5798-7.6726-4.7746-9.7018 1.4857-11.387 14.256-16.132 20.145-25.094 10.063-9.3411 17.186-21.073 24.373-32.607 20.616-14.336 33.517-28.53 50.203-46.858 4.368-10.777 10.853-20.729 15.587-31.099 5.5828 0.29014 4.8942 13.409 6.6243 18.747 1.1215 14.844 2.0163 26.53 6.5997 40.995 2.3564 12.148-8.9778 25.552-9.3402 38.061 1.5528 10.734 29.482 20.868 28.066 32.047 3.1823 11.076-15.497 22.696-14.349 34.413 2.6329 11.257-0.25656 23.027-3.8681 33.698-3.3956 10.194-13.459 16.108-16.773 25.682-8.6686 5.2965-22.854 1.3289-28.679-7.0233-8.2714-12.094-20.218-20.702-30.844-30.516-7.5216-9.5521-16.35-18.327-26.949-24.366-5.2159-5.6388-9.623-12.219-16.019-16.377z"/>
  <path d="m600.38 341.2c18.088 2.5257 31.242 7.8498 41.72 19.906 5.8257 6.0384 15.098 9.33 17.719 17.945 2.5826 6.9792 7.8246 14.019 15.929 14.283 9.5545 1.7558 18.622 5.3932 26.768 10.671 6.2709 1.9781 16.112 7.4856 11.936 15.408-5.251 5.2509-8.1564 13.62-15.929 15.747-6.9507 5.3804-16.353 2.339-24.414 2.8305-11.702-1.8455-22.21-7.806-33.877-9.8486-7.959-2.5015-16.368 0.23888-24.541-0.55798-6.4315-5.4477-7.3523-14.486-11.812-21.297-5.5702-10.733-8.4-22.701-8.4601-34.778 0.11658-6.9111-0.15594-14.017 1.5021-20.738 2.9261-6.135 1.8248-2.8129 3.4596-9.5701z"/>
  <path d="m619.73 508.9c-8.0084 12.491-10.222 27.537-16.837 40.68-2.9192 12.165-2.74 26.086-12.119 35.612-8.716 8.7351-18.29 16.573-26.388 25.943-10.126 10.765-21.458 20.456-32.168 30.492-6.5505 10.47-19.199-0.83968-15.476-10.166-5.06-19.306-16.089-36.554-19.836-56.284-5.7566-20.739-13.289-41.373-13.94-63.111-3.2272-13.211-10.622-25.069-13.015-38.524-7.3373-10.222 5.3464-18.678 14.459-19.823 10.565-3.875 13.41-21.974 25.887-20.055 10.808 2.741 19.256 10.933 30.122 13.606 13.451 5.0974 27.238 10.465 37.922 20.435 11.744 9.2189 26.035 15.06 36.999 25.178 2.9411 4.8764 1.3003 11.19 4.3898 16.017z"/>
  <path d="m469.72 460.41c-16.023 7.3639-34.617 4.4598-50.84 10.566-21.332 13.711-47.868 10.582-71.378 17.574-21.168 5.5286-40.402 16.574-61.551 22.276-8.7178 3.089-27.963 2.5689-14.703 14.411 9.5026 8.9777 21.533 14.714 32.738 21.202 13.784 5.5934 31.725 3.2782 41.705 16.313 11.52 8.5938 23.314 16.808 35.087 25.05 18.795 0.1619 32.699 15.836 50.984 18.301 16.173 4.3063 32.358 10.145 49.225 10.349 14.326-1.8362 26.603-10.282 39.876-15.356 9.3915-4.4606 22.778-8.1479 24.776-20.01-1.6543-12.961-3.6974-26.079-5.2635-39.153-1.7982-14.806-7.5062-28.875-16.502-40.728-6.8192-10.766-16.954-19.547-28.899-24.128-7.5171-6.8206-16.636-11.442-25.254-16.668z"/>
  <path d="m330.82 494.25c-13.883 3.4947-28.046 7.1298-41.416 13.132-12.476 5.1615-25.731 7.7819-38.937 10.564-11.992 5.0503-23.014 11.643-34.804 16.71-11.689 5.4934-20.605 14.845-28.827 24.508-36.534 31.775-4.695 23.676 26.402 83.767 16.17 5.9234 32.517 29.689 48.045 37.142 14.586 5.4534 5.1746 20.209 12.008 35.913 17.678-10.997 57.496-53.493 67.792-75.317 14.723-3.985 28.376 4.1974 42.708 6.1546 13.582 3.3233 27.361 4.2863 41.417 5.2035 12.801 1.2327 25.374 1.2257 38.211 0.69718 16.964-0.27051 33.43 2.8158 46.704-9.4767 19.169-11.362 21.627-34.483 17.514-54.425-4.4243-26.737-26.151-48.083-51.29-56.541-14.114-6.3727-29.949-5.4302-44.021-12.116-22.463-7.1312-46.21-9.0147-69.438-11.875-10.738-4.09-23.878-6.776-31.692-14.341z"/>
  <path d="m537.4 636.18c-3.9777 7.75-7.2292 15.823-9.1414 24.339-2.6492 9.2745-5.3358 18.545-7.55 27.937-0.51245 21.938-17.549 58.168-1.4913 76.014-0.46195 6.9768 4.099 13.164 11.171 14.055 6.3196 3.3706 13.183 5.94 19.247 8.9344 4.7755 4.1749 5.9295 11.179-2.0079 11.538-8.6904 10.498-38.08 8.3954-48.137 2.241-7.5059 1.1578-10.188-7.4228-11.425-13.243-0.81605-8.8613-14.838-22.598-14.404-26.992-4.3249-6.7876-1.4918-16.493-2.473-24.428-2.7806-6.0548-3.5496-12.561-2.9797-19.351 0.10149-7.3417-2.5621-14.103-1.5197-21.676 0.25205-6.5198-0.0886-12.907-1.0231-19.307 0.23755-7.0414-1.0016-14.011-0.44245-21.069-1.2024-7.1638 0.82346-15.577 8.5255-18.061 8.3155-2.7873 18.209 1.6296 25.804-3.9833 7.2913-4.1922 16.088-2.7016 24.155-3.0084h8.6414c1.4067 2.262 3.7644 3.6917 5.0508 6.0609z"/>
  <path d="m214.76 561.75c-12.502 8.5162-26.659 4.0219-40.233 13.001-14.176 14.237-34.568 23.086-51.427 34.97-37.348 24.748-79.262 36.498-118.27 49.908-16.852 5.3205-39.633 10.993-49.069 22.27 16.296 3.465 47.967 16.09 64.556 15.393 60.213 6.956 110.63-18.183 156.94-55.569 22.607-31.453 71.273-52.133 37.509-79.974z"/>
  <path d="m338.63 629.85c2.889 13.344-5.5787 25.155-10.992 36.41-9.9696 16.211-22.667 30.478-37.438 41.936-5.7465 5.305-12.268 9.6645-18.815 13.637-7.8318 8.6276-23.908 1.1147-29.4 12.038-1.247 12.683 12.566 18.958 14.393 30.715 5.4386 7.4639 14.589 10.91 21.519 16.63 8.436 3.7155 18.026 1.8025 26.477 5.4141 4.1956 9.0884 3.9902 26.864-9.1544 26.095-10.467 0.75145-21.143 5.357-31.556 2.1175-8.2291-6.2697-13.058-17.298-24.322-18.264-9.6551-7.2382-13.236-20.227-22.376-28.167-6.0999-10.418-10.047-22.243-17.882-31.526-5.2365-6.9941-11.662-16.762-6.586-25.614 5.0098-12.116 17.719-19.998 18.937-33.853 1.7925-12.557-20.222-62.04-19.146-74.524 1.0042-10.949 17.539-22.985 17.539-22.985 19.222-15.602 61.589 16.915 85.346 18.734 11.227 0.37996 22.579-0.31588 33.727 0.17077 9.7218 3.8781 9.166 16.393 9.6068 25.438-0.0179 1.8797 0.44223 3.7275 0.12184 5.5979z"/>
  <path d="m608.57 423.79c3.6992-0.85818 7.9272 1.8149 8.2299 5.6054 1.6692 2.6068 3.7654 3.98 4.3589 7.0313 0.81988 2.9845 2.1375 6.4639 5.9364 5.2997 3.1065 1.5612 6.4096 1.9121 9.5082 3.3326 3.6702 1.6486 7.6924 0.75523 11.556 0.86629 3.7741-1.5688 7.6073-1.6299 11.767-1.4154 3.78 0.18413 7.266-1.4686 11.128-0.6281 4.1691-0.19456 7.4363-0.54081 11.559-1.2366 2.9664-1.5262 6.5291-2.2396 9.0872-4.3283 0.40574-2.7912 3.5016-4.8442 3.9439-6.9566-2.4621-3.2054-6.8693-3.8847-9.5559-6.7361-3.5668-0.27403-5.816-2.933-8.9962-4.1354-3.6838-1.4501-7.3337-3.4739-11.442-3.1332-3.9969-0.19624-7.985-1.2916-12.033-1.3445-5.5636-0.24105-10.849-3.1679-16.499-2.1161-4.0051 0.11073-8.3877-1.128-12 1.2041-3.1496 0.98383-6.7057 1.5466-8.9131 4.2523-2.4184 1.6624-4.5983 4.1245-7.6366 4.4385z"/>
 </g>
</svg>
